<svg id="visual" viewBox="0 0 960 540" width="960" height="540" xmlns="http://www.w3.org/2000/svg" xmlns:xlink="http://www.w3.org/1999/xlink" version="1.1"><path d="M0 39L87 39L87 71L175 71L175 87L262 87L262 93L349 93L349 71L436 71L436 39L524 39L524 39L611 39L611 77L698 77L698 77L785 77L785 44L873 44L873 39L960 39L960 71L960 0L960 0L873 0L873 0L785 0L785 0L698 0L698 0L611 0L611 0L524 0L524 0L436 0L436 0L349 0L349 0L262 0L262 0L175 0L175 0L87 0L87 0L0 0Z" fill="#69fabc"></path><path d="M0 136L87 136L87 185L175 185L175 222L262 222L262 158L349 158L349 201L436 201L436 174L524 174L524 109L611 109L611 201L698 201L698 206L785 206L785 109L873 109L873 179L960 179L960 120L960 69L960 37L873 37L873 42L785 42L785 75L698 75L698 75L611 75L611 37L524 37L524 37L436 37L436 69L349 69L349 91L262 91L262 85L175 85L175 69L87 69L87 37L0 37Z" fill="#57e7a3"></path><path d="M0 384L87 384L87 325L175 325L175 363L262 363L262 368L349 368L349 325L436 325L436 325L524 325L524 336L611 336L611 320L698 320L698 411L785 411L785 260L873 260L873 363L960 363L960 282L960 118L960 177L873 177L873 107L785 107L785 204L698 204L698 199L611 199L611 107L524 107L524 172L436 172L436 199L349 199L349 156L262 156L262 220L175 220L175 183L87 183L87 134L0 134Z" fill="#46d58b"></path><path d="M0 503L87 503L87 482L175 482L175 471L262 471L262 471L349 471L349 487L436 487L436 465L524 465L524 449L611 449L611 492L698 492L698 487L785 487L785 465L873 465L873 465L960 465L960 455L960 280L960 361L873 361L873 258L785 258L785 409L698 409L698 318L611 318L611 334L524 334L524 323L436 323L436 323L349 323L349 366L262 366L262 361L175 361L175 323L87 323L87 382L0 382Z" fill="#35c273"></path><path d="M0 541L87 541L87 541L175 541L175 541L262 541L262 541L349 541L349 541L436 541L436 541L524 541L524 541L611 541L611 541L698 541L698 541L785 541L785 541L873 541L873 541L960 541L960 541L960 453L960 463L873 463L873 463L785 463L785 485L698 485L698 490L611 490L611 447L524 447L524 463L436 463L436 485L349 485L349 469L262 469L262 469L175 469L175 480L87 480L87 501L0 501Z" fill="#23b05b"></path></svg>